<?xml version="1.0" standalone="no"?>
<!DOCTYPE svg PUBLIC "-//W3C//DTD SVG 20010904//EN"
 "http://www.w3.org/TR/2001/REC-SVG-20010904/DTD/svg10.dtd">
<svg version="1.0" xmlns="http://www.w3.org/2000/svg"
 width="400.000000pt" height="400.000000pt" viewBox="0 0 400.000000 400.000000"
 preserveAspectRatio="xMidYMid meet">

<g transform="translate(0.000000,400.000000) scale(0.100000,-0.100000)"
fill="#000000" stroke="none">
<path d="M2236 2966 c11 -8 49 -24 85 -36 35 -12 82 -32 104 -45 22 -13 58
-26 79 -30 35 -7 102 -52 93 -62 -3 -2 -22 3 -42 12 -53 21 -57 10 -11 -32 29
-27 44 -34 64 -30 39 7 117 -50 117 -86 1 -29 24 -59 70 -87 33 -21 41 -38 85
-205 25 -93 48 -141 91 -190 37 -42 56 -44 69 -9 7 17 15 24 25 20 20 -7 19 5
-6 99 -39 151 -144 339 -190 342 -13 1 -29 -3 -36 -9 -9 -7 -17 -7 -29 3 -14
12 -44 61 -44 74 0 11 23 4 51 -16 62 -44 48 -10 -23 56 -145 135 -383 244
-533 245 -37 0 -38 -1 -19 -14z"/>
<path d="M1923 2899 c-5 -8 -13 -27 -17 -42 -5 -23 -2 -32 17 -47 13 -11 30
-34 37 -52 7 -18 22 -43 33 -55 22 -25 16 -43 -7 -24 -8 7 -27 34 -43 59 l-27
47 -7 -35 c-6 -26 -3 -40 11 -58 21 -26 17 -52 -9 -52 -9 0 -27 -3 -41 -5 -23
-5 -23 -4 3 6 46 18 35 78 -13 71 -17 -2 -37 1 -45 8 -12 10 -18 10 -30 0 -21
-17 -19 -43 5 -58 28 -17 16 -33 -20 -25 -17 3 -43 0 -59 -7 -25 -10 -35 -8
-70 10 -31 15 -46 18 -60 11 -26 -15 -101 -106 -101 -124 0 -8 -7 -20 -16 -27
-30 -26 -36 -48 -18 -75 16 -25 16 -26 -22 -62 l-39 -36 47 26 c25 15 60 40
76 57 48 47 64 41 131 -50 25 -32 39 -61 36 -71 -3 -10 5 -30 20 -47 21 -25
25 -40 25 -95 0 -77 9 -93 135 -222 54 -55 90 -85 92 -77 3 7 -3 19 -12 26
-10 7 -16 19 -13 26 2 8 27 -9 69 -47 73 -69 118 -87 175 -71 30 8 46 5 97
-15 34 -14 80 -30 102 -36 l41 -11 -1 -57 c-1 -32 -7 -77 -14 -100 -8 -23 -11
-48 -8 -57 3 -8 39 -37 79 -64 71 -46 73 -49 72 -88 -1 -55 -34 -154 -51 -154
-21 0 -79 32 -205 111 -140 89 -239 149 -244 149 -13 0 -1 -19 14 -23 13 -3
10 -7 -12 -16 -27 -11 -158 -8 -226 5 -14 2 -38 6 -55 9 -16 2 -48 9 -70 14
-22 6 -41 9 -42 7 -1 -1 48 -26 110 -55 144 -69 411 -170 462 -176 22 -2 32
-2 23 1 -10 3 -18 10 -18 15 0 12 77 12 85 -1 3 -5 11 -10 16 -10 6 0 7 5 4
10 -3 6 -4 10 -2 10 9 0 133 -53 144 -61 20 -17 72 -29 67 -16 -2 7 39 52 91
100 52 49 109 109 127 135 17 26 46 64 63 84 29 34 85 174 85 211 0 23 -26 28
-76 15 -44 -12 -45 -12 -68 17 -20 25 -32 30 -73 32 -115 5 -241 0 -266 -11
-22 -10 -53 15 -61 50 -5 20 -12 24 -46 24 -39 0 -40 1 -40 35 0 19 -3 35 -7
35 -4 0 -21 -16 -39 -35 -17 -19 -38 -35 -46 -35 -25 0 -59 46 -65 87 -5 35
-2 43 22 61 15 12 34 22 42 22 7 0 24 6 36 14 46 29 63 28 93 -4 49 -51 59
-33 22 36 l-21 41 21 31 c16 22 22 45 22 85 0 35 5 59 14 67 8 6 16 24 18 38
2 19 10 28 26 30 26 4 59 59 44 74 -6 6 -12 6 -16 -1 -11 -17 -43 -13 -50 5
-7 19 20 54 41 54 8 0 17 -9 20 -20 6 -23 13 -24 47 -9 25 12 26 39 0 39 -7 0
-29 14 -47 30 -19 17 -43 30 -54 30 -11 0 -39 14 -63 31 -40 29 -44 30 -56 14
-9 -12 -20 -16 -38 -11 -28 7 -36 36 -11 36 19 0 19 5 -2 57 -10 24 -24 43
-32 43 -7 0 -28 8 -45 19 -17 10 -56 22 -86 25 -55 7 -56 8 -71 51 -9 24 -14
47 -11 50 20 20 95 -12 206 -87 32 -22 76 -46 98 -54 41 -14 100 -19 110 -8
10 9 -145 153 -187 173 -53 26 -265 40 -282 20z m166 -210 c12 -11 26 -31 31
-43 7 -19 14 -22 39 -18 24 3 31 0 31 -12 0 -9 -8 -16 -20 -16 -31 0 -35 -25
-11 -66 12 -20 23 -48 25 -63 2 -14 7 -34 11 -43 10 -26 -11 -22 -29 4 -12 16
-30 23 -77 29 -83 10 -96 24 -79 84 12 44 13 45 46 39 37 -7 45 7 20 35 -16
19 -31 91 -18 91 4 0 18 -9 31 -21z"/>
<path d="M2305 2849 c-9 -13 12 -29 38 -29 26 0 17 34 -10 38 -11 2 -24 -2
-28 -9z"/>
<path d="M1584 2836 c23 -19 32 -20 41 -6 3 6 0 10 -9 10 -8 0 -23 3 -33 6
-16 5 -16 4 1 -10z"/>
<path d="M1823 2779 c-16 -16 1 -39 29 -39 14 0 19 6 16 22 -3 26 -28 34 -45
17z"/>
<path d="M1515 2770 c4 -6 11 -8 16 -5 14 9 11 15 -7 15 -8 0 -12 -5 -9 -10z"/>
<path d="M3082 2135 c0 -16 2 -22 5 -12 2 9 2 23 0 30 -3 6 -5 -1 -5 -18z"/>
<path d="M3090 2078 c0 -9 7 -19 16 -22 25 -10 27 -1 4 19 -17 15 -20 16 -20
3z"/>
<path d="M3095 2020 c-3 -5 -1 -10 4 -10 6 0 11 5 11 10 0 6 -2 10 -4 10 -3 0
-8 -4 -11 -10z"/>
<path d="M2333 1950 c-13 -5 -23 -14 -23 -20 0 -13 13 -13 28 2 8 8 18 9 34 1
29 -13 81 3 58 17 -19 12 -68 12 -97 0z"/>
<path d="M2462 1948 c-16 -16 -15 -25 4 -32 18 -7 64 18 64 34 0 14 -54 12
-68 -2z"/>
<path d="M1277 1625 c10 -13 22 -25 26 -25 13 0 -11 37 -28 44 -13 5 -13 1 2
-19z"/>
<path d="M2985 1580 c3 -5 8 -10 11 -10 2 0 4 5 4 10 0 6 -5 10 -11 10 -5 0
-7 -4 -4 -10z"/>
<path d="M3086 1415 c4 -11 9 -43 11 -71 4 -41 0 -60 -21 -102 -14 -28 -23
-58 -20 -66 3 -9 2 -16 -4 -16 -6 0 -13 6 -15 13 -4 8 -6 6 -6 -4 -1 -9 -7
-16 -13 -16 -19 -1 -106 -53 -88 -53 8 0 26 9 40 20 17 13 28 16 37 8 9 -7 20
-4 38 10 15 12 33 18 41 15 8 -3 14 -1 14 4 0 15 54 41 75 36 32 -7 89 -3 99
7 14 14 39 12 30 -1 -3 -6 5 -4 19 5 14 10 30 29 35 44 20 51 24 72 13 72 -6
0 -11 7 -11 15 0 12 -17 15 -82 17 -46 0 -90 1 -98 0 -31 -3 -72 22 -86 52 -8
17 -11 22 -8 11z m-46 -271 c0 -8 -19 -13 -24 -6 -3 5 1 9 9 9 8 0 15 -2 15
-3z"/>
<path d="M3648 1401 c-8 -10 -18 -24 -21 -32 -4 -10 -6 -9 -6 4 -1 21 -24 22
-41 2 -7 -8 -25 -14 -43 -12 -28 2 -32 -2 -54 -58 -14 -33 -31 -65 -39 -71
-12 -10 -12 -13 0 -24 9 -6 20 -9 26 -5 5 3 10 1 10 -6 0 -6 9 -10 23 -7 17 3
22 -1 23 -20 1 -13 4 -26 7 -28 6 -7 58 24 75 45 10 12 12 13 12 0 0 -8 11 8
24 35 27 53 43 156 29 180 -8 14 -11 14 -25 -3z"/>
<path d="M1446 1372 c-3 -5 1 -9 9 -9 8 0 12 4 9 9 -3 4 -7 8 -9 8 -2 0 -6 -4
-9 -8z"/>
<path d="M2570 1140 c8 -5 20 -10 25 -10 6 0 3 5 -5 10 -8 5 -19 10 -25 10 -5
0 -3 -5 5 -10z"/>
<path d="M2420 1132 c0 -5 14 -7 30 -4 17 2 30 6 30 8 0 2 -13 4 -30 4 -16 0
-30 -4 -30 -8z"/>
<path d="M1885 1104 c21 -16 21 -43 2 -57 -20 -14 152 0 248 19 l90 19 -125 6
c-69 4 -141 12 -160 18 -19 6 -44 11 -55 11 -20 -1 -20 -1 0 -16z"/>
<path d="M2538 1113 c7 -3 16 -2 19 1 4 3 -2 6 -13 5 -11 0 -14 -3 -6 -6z"/>
<path d="M2615 1110 c-22 -9 -21 -9 48 -28 20 -6 35 -6 31 -1 -3 5 -11 9 -19
9 -7 0 -20 6 -27 13 -8 9 -21 11 -33 7z"/>
<path d="M2877 1059 c5 -5 27 -12 49 -14 44 -6 37 -1 -20 14 -26 7 -36 7 -29
0z"/>
</g>
</svg>
